<?xml version="1.0" standalone="no"?>
<!DOCTYPE svg PUBLIC "-//W3C//DTD SVG 20010904//EN"
 "http://www.w3.org/TR/2001/REC-SVG-20010904/DTD/svg10.dtd">
<svg version="1.0" xmlns="http://www.w3.org/2000/svg"
 width="390.000000pt" height="390.000000pt" viewBox="0 0 390.000000 390.000000"
 preserveAspectRatio="xMidYMid meet">
<metadata>
Created by potrace 1.14, written by Peter Selinger 2001-2017
</metadata>
<g transform="translate(0.000000,390.000000) scale(0.100000,-0.100000)"
fill="#000000" stroke="none">
<path d="M1780 3851 c-41 -13 -88 -40 -122 -70 -24 -20 -49 -31 -88 -36 -74
-10 -121 -28 -183 -69 -119 -80 -200 -188 -213 -288 l-7 -47 -33 14 c-154 64
-409 -12 -507 -151 -17 -24 -37 -44 -44 -44 -7 0 -21 -4 -31 -9 -9 -5 -30 -15
-45 -22 -40 -19 -152 -123 -187 -174 -92 -134 -128 -271 -101 -390 5 -20 1
-40 -9 -60 -42 -76 -49 -171 -24 -293 19 -92 58 -165 120 -222 l46 -42 -35
-31 c-129 -118 -183 -336 -121 -482 14 -33 25 -64 24 -70 -1 -5 -2 -53 -3
-105 -2 -109 14 -168 71 -269 20 -35 42 -72 49 -84 31 -54 192 -167 239 -167
8 0 14 -4 14 -9 0 -22 104 -120 157 -148 151 -80 270 -92 395 -39 14 6 18 0
24 -31 14 -75 50 -140 116 -211 89 -94 145 -127 253 -144 49 -8 81 -20 107
-40 20 -16 63 -41 95 -56 54 -25 68 -27 218 -30 188 -4 219 3 313 67 51 35 78
47 111 49 62 4 142 37 208 86 59 44 133 119 133 135 0 5 6 16 13 23 19 20 35
61 42 111 l7 46 37 -16 c55 -24 199 -21 286 7 99 31 160 73 218 150 15 20 43
42 64 49 145 52 299 235 338 404 16 64 17 89 9 150 -9 62 -8 76 7 103 27 48
42 140 34 208 -15 142 -49 218 -130 295 -30 28 -50 51 -46 51 17 0 94 88 118
133 33 66 63 188 63 256 0 37 -9 76 -26 116 -29 68 -28 57 -19 155 20 207
-140 466 -329 531 -25 9 -48 27 -62 49 -32 49 -106 103 -200 147 -74 36 -85
38 -174 38 -67 0 -107 -5 -137 -17 l-42 -18 -7 38 c-16 92 -67 167 -195 285
-34 32 -121 68 -181 74 -34 3 -69 13 -79 22 -38 35 -52 43 -107 69 -55 26 -65
27 -237 29 -99 1 -191 -2 -205 -6z"/>
</g>
</svg>
