<?xml version="1.0" standalone="no"?>
<!DOCTYPE svg PUBLIC "-//W3C//DTD SVG 20010904//EN"
 "http://www.w3.org/TR/2001/REC-SVG-20010904/DTD/svg10.dtd">
<svg version="1.0" xmlns="http://www.w3.org/2000/svg"
 width="180.000000pt" height="180.000000pt" viewBox="0 0 180.000000 180.000000"
 preserveAspectRatio="xMidYMid meet">
<metadata>
Created by potrace 1.14, written by Peter Selinger 2001-2017
</metadata>
<g transform="translate(0.000000,180.000000) scale(0.100000,-0.100000)"
fill="#000000" stroke="none">
<path d="M810 1769 c-14 -6 -34 -18 -45 -28 -11 -9 -33 -18 -50 -20 -40 -4
-73 -22 -115 -63 -33 -32 -65 -102 -55 -118 3 -4 -14 -1 -37 7 -66 23 -141 2
-197 -53 -24 -24 -49 -44 -56 -44 -21 0 -95 -71 -122 -118 -21 -36 -28 -61
-29 -107 0 -33 -6 -79 -13 -103 -19 -68 0 -143 50 -193 22 -22 33 -39 25 -39
-23 0 -55 -48 -73 -109 -13 -46 -14 -63 -4 -96 6 -22 13 -69 14 -105 2 -50 10
-78 32 -119 28 -52 93 -111 121 -111 7 0 22 -14 34 -30 41 -58 154 -94 219
-72 26 9 31 8 31 -4 0 -22 29 -75 59 -107 31 -34 63 -52 109 -60 19 -4 46 -16
61 -26 29 -21 118 -47 128 -38 3 3 -8 9 -23 13 -16 3 -54 19 -84 35 -30 16
-74 33 -97 39 -57 14 -98 51 -119 108 -25 66 -31 73 -60 61 -35 -13 -111 -11
-137 2 -12 7 -43 30 -68 53 -25 23 -65 52 -89 66 -63 37 -90 91 -102 203 -5
50 -12 111 -15 133 -6 48 13 92 59 140 l30 32 -35 38 c-19 22 -39 49 -46 61
-14 28 -14 93 0 130 6 15 11 50 10 76 -3 99 40 177 119 217 20 10 58 39 83 64
53 51 91 63 165 50 26 -4 51 -8 56 -9 5 0 17 23 26 52 9 29 23 60 30 68 18 22
76 51 120 60 19 4 48 17 63 28 16 11 48 25 70 33 38 12 39 13 12 13 -16 0 -41
-5 -55 -10z"/>
<path d="M967 1766 c23 -8 56 -23 75 -34 18 -11 59 -27 90 -36 67 -19 110 -64
128 -133 10 -40 13 -44 33 -39 97 29 139 19 215 -47 33 -28 80 -64 104 -78 58
-34 80 -81 87 -184 4 -44 10 -85 14 -92 26 -41 -3 -153 -52 -197 -29 -26 -27
-34 17 -79 36 -37 37 -40 36 -105 -1 -37 -6 -108 -11 -159 -11 -110 -38 -158
-110 -199 -27 -15 -70 -48 -96 -73 l-48 -46 -91 0 -91 0 -14 -45 c-22 -74 -58
-105 -153 -130 -25 -7 -56 -20 -70 -30 -14 -10 -48 -25 -75 -34 l-50 -16 47 5
c26 2 66 16 88 30 22 14 47 25 57 25 59 0 167 93 179 155 6 31 6 32 44 22 60
-16 141 6 188 51 20 20 57 48 82 62 28 16 59 46 84 83 36 51 40 64 42 125 2
38 8 81 14 96 24 63 4 154 -45 203 l-32 32 28 27 c49 47 71 142 48 201 -6 15
-11 53 -10 83 2 73 -44 169 -102 211 -22 16 -44 29 -50 29 -5 0 -26 17 -47 39
-62 63 -179 89 -227 49 -10 -8 -13 -5 -13 11 0 29 -32 91 -62 117 -32 30 -82
54 -112 54 -14 0 -28 5 -31 10 -12 20 -84 50 -117 49 l-33 0 42 -13z"/>
<path d="M1020 1686 c0 -2 8 -10 18 -17 15 -13 16 -12 3 4 -13 16 -21 21 -21
13z"/>
<path d="M620 1589 c-6 -11 -10 -25 -8 -30 2 -5 8 4 15 21 13 34 9 40 -7 9z"/>
<path d="M1211 1540 c-1 -14 -8 -34 -16 -44 -8 -11 -15 -25 -15 -30 0 -6 9 4
21 23 11 18 18 43 16 55 -4 18 -4 18 -6 -4z"/>
<path d="M624 1493 c5 -7 12 -28 16 -46 7 -29 8 -30 9 -6 1 15 -7 35 -16 46
-10 10 -14 13 -9 6z"/>
<path d="M1460 1456 c0 -2 8 -10 18 -17 15 -13 16 -12 3 4 -13 16 -21 21 -21
13z"/>
<path d="M1263 1421 c-19 -23 -24 -25 -50 -15 -19 7 -38 8 -54 2 -13 -6 -73
-14 -134 -19 -60 -5 -171 -19 -245 -30 -202 -31 -232 -50 -169 -103 33 -28 66
-31 167 -17 52 7 61 4 42 -15 -8 -8 -7 -20 0 -40 7 -17 9 -53 5 -90 l-7 -62
-47 -12 c-67 -17 -111 -38 -111 -53 0 -28 49 -61 90 -62 32 0 40 -4 40 -19 0
-35 -61 -143 -106 -187 l-45 -44 2 252 1 252 -26 34 c-32 42 -72 65 -87 50
-45 -45 -66 -621 -27 -714 16 -37 61 -79 84 -79 8 0 23 9 34 20 18 18 23 19
48 6 22 -11 69 -13 244 -8 l216 5 39 -42 c26 -26 49 -41 64 -41 14 0 31 -6 39
-13 12 -10 12 -9 2 4 -10 13 -9 19 2 28 8 7 22 33 32 59 14 39 18 103 24 387
5 240 11 354 21 388 l14 49 -35 31 c-19 18 -46 39 -60 48 l-25 17 24 26 c14
14 23 28 20 30 -2 2 -14 -9 -26 -23z m-105 -173 c9 -8 12 -86 12 -327 0 -174
-3 -326 -6 -338 l-6 -21 -34 20 c-33 19 -41 20 -183 9 -82 -7 -175 -16 -207
-21 -93 -16 -94 -15 -94 29 0 44 10 51 74 51 55 0 99 29 145 97 l34 52 70 -65
c103 -95 149 -98 155 -11 4 65 -30 99 -123 125 -61 16 -70 22 -73 43 -4 40 10
49 101 63 101 17 107 20 107 50 0 43 -82 92 -125 76 -52 -20 -56 -16 -49 54
l7 64 -39 25 c-43 30 -38 35 51 40 78 5 167 -2 183 -15z"/>
<path d="M540 1426 c0 -2 8 -10 18 -17 15 -13 16 -12 3 4 -13 16 -21 21 -21
13z"/>
<path d="M1540 1386 c0 -2 7 -7 16 -10 8 -3 12 -2 9 4 -6 10 -25 14 -25 6z"/>
<path d="M1652 1215 c0 -16 2 -22 5 -12 2 9 2 23 0 30 -3 6 -5 -1 -5 -18z"/>
<path d="M169 1170 c-3 -19 -9 -44 -13 -55 -4 -11 0 -7 9 8 9 15 15 40 13 55
-3 25 -4 24 -9 -8z"/>
<path d="M1656 1127 c3 -10 9 -15 12 -12 3 3 0 11 -7 18 -10 9 -11 8 -5 -6z"/>
<path d="M185 970 c10 -11 20 -20 23 -20 3 0 -3 9 -13 20 -10 11 -20 20 -23
20 -3 0 3 -9 13 -20z"/>
<path d="M306 865 c-11 -8 -15 -15 -9 -15 6 0 16 7 23 15 16 19 11 19 -14 0z"/>
<path d="M193 834 l-28 -25 33 22 c17 13 32 24 32 26 0 8 -11 1 -37 -23z"/>
<path d="M1630 825 c13 -14 26 -25 28 -25 3 0 -5 11 -18 25 -13 14 -26 25 -28
25 -3 0 5 -11 18 -25z"/>
<path d="M1672 720 c0 -14 2 -19 5 -12 2 6 2 18 0 25 -3 6 -5 1 -5 -13z"/>
<path d="M1652 665 c-7 -14 -12 -31 -12 -38 1 -7 7 3 16 22 17 39 13 54 -4 16z"/>
<path d="M169 638 c4 -28 6 -29 9 -9 2 13 0 27 -5 32 -6 6 -7 -3 -4 -23z"/>
<path d="M1652 580 c0 -19 2 -27 5 -17 2 9 2 25 0 35 -3 9 -5 1 -5 -18z"/>
<path d="M1589 443 l-24 -28 28 24 c15 14 27 26 27 28 0 8 -8 1 -31 -24z"/>
<path d="M210 456 c0 -2 8 -10 18 -17 15 -13 16 -12 3 4 -13 16 -21 21 -21 13z"/>
<path d="M320 391 c0 -6 4 -13 10 -16 6 -3 7 1 4 9 -7 18 -14 21 -14 7z"/>
<path d="M1474 363 c-15 -20 -23 -33 -16 -29 13 8 56 66 49 66 -3 0 -17 -17
-33 -37z"/>
<path d="M641 354 c0 -11 3 -14 6 -6 3 7 2 16 -1 19 -3 4 -6 -2 -5 -13z"/>
<path d="M340 356 c0 -2 8 -10 18 -17 15 -13 16 -12 3 4 -13 16 -21 21 -21 13z"/>
<path d="M1180 329 c0 -9 7 -22 15 -29 8 -7 16 -24 16 -39 1 -22 2 -22 6 -5 2
12 -5 37 -16 55 -12 20 -21 27 -21 18z"/>
<path d="M621 307 c-13 -21 -12 -21 5 -5 10 10 16 20 13 22 -3 3 -11 -5 -18
-17z"/>
<path d="M1024 118 l-19 -23 23 19 c12 11 22 21 22 23 0 8 -8 2 -26 -19z"/>
</g>
</svg>
